<?xml version="1.0" encoding="UTF-8" standalone="no"?>
<!DOCTYPE svg PUBLIC "-//W3C//DTD SVG 1.1//EN" "http://www.w3.org/Graphics/SVG/1.1/DTD/svg11.dtd">
<svg width="100%" height="100%" viewBox="0 0 1280 720" version="1.1" xmlns="http://www.w3.org/2000/svg" xmlns:xlink="http://www.w3.org/1999/xlink" xml:space="preserve" xmlns:serif="http://www.serif.com/" style="fill-rule:evenodd;clip-rule:evenodd;stroke-linejoin:round;stroke-miterlimit:2;">
    <g transform="matrix(1,0,0,1,-4629,-1919)">
        <g id="Library-Logo" serif:id="Library Logo" transform="matrix(1.00946,0,0,0.903388,-2985.38,1487.18)">
            <rect x="7543" y="478" width="1268" height="797" style="fill:none;"/>
            <g id="Logo" transform="matrix(1.14123,0,0,1.27523,6065.49,327.351)">
                <g transform="matrix(1,0,0,1,70.244,-1.62537e-13)">
                    <path d="M2061,191L2061,216L2013.36,216L2013,259L2047.36,259L2047.36,289L2013,289L2013,410L1981,410L1981.36,289L1949,289L1949,259L1981.36,259L1981.36,190L2061,191ZM2148.8,259L2186.81,259L2186.81,289L2148.36,289L2148.36,410L2115.78,410L2116.36,289L2081.81,289L2081.81,259L2116.36,259L2117.36,196L2148.36,196L2148.8,259ZM1406.5,410.484L1369.99,410.484L1393.87,148.516L1530.36,148.516L1530.36,410L1491.43,410L1491.43,296L1418.36,296L1406.5,410.484ZM1700.36,410L1567.36,410L1567.36,260.001L1662.36,259.91L1662.72,148.91L1700,149L1700.36,410ZM1774.97,410L1741.91,410L1740,261L1846.5,259L1817.71,295L1775,295L1774.97,410ZM1911.36,410L1880.36,410L1880.36,259L1911.36,259L1911.36,410ZM1602.23,297L1602.38,373.639L1662.36,374L1662.36,297L1602.23,297ZM1425,178L1420.36,260L1492.43,259L1491.43,178L1425,178ZM1913.36,239L1877.36,239L1877.36,202L1913.36,202L1913.36,239Z" style="fill:white;"/>
                </g>
                <g transform="matrix(1,0,0,1,0.601409,-2.72848e-12)">
                    <path d="M1871.71,711L1776.89,711L1776.89,560L1904.89,560L1904.89,657L1808.89,656L1808.89,679L1871.89,679L1871.71,711ZM1976.01,711L1937.39,711L1938.82,545L1975.89,545L1975.89,560L2057.32,560L2057.89,710.891L2022.89,710.783L2022.32,594L1975.82,594L1976.01,711ZM2241.82,711L2205,711L2204.89,594L2143,594L2133.07,604L2133,673L2218,673L2204.98,688.463L2186,711L2099.82,711C2099.82,711 2099.85,636.304 2099.88,591.984L2131.88,560L2206.89,560L2206.89,542L2241.89,542L2241.82,711ZM1614.56,710.031L1575.64,710.031L1575.64,596.031L1502.56,596.031L1490.71,710.516L1454.19,710.516L1478.07,448.547L1614.56,448.547L1614.56,710.031ZM1723.85,595.031L1681.14,595.031L1681.11,710.031L1648.04,710.031L1646.14,561.031L1752.64,559.031L1723.85,595.031ZM1874.89,593L1807.89,593L1808.08,626L1874.96,626L1874.89,593ZM1575.64,478.031L1509.2,478.031L1504.56,560.031L1576.64,559.031L1575.64,478.031Z" style="fill:white;fill-rule:nonzero;"/>
                </g>
            </g>
        </g>
    </g>
</svg>
